<?xml version="1.0" encoding="UTF-8" standalone="no"?>
<!-- Created with Inkscape (http://www.inkscape.org/) -->

<svg
   width="150"
   height="150"
   viewBox="0 0 39.6875 39.6875"
   version="1.1"
   id="svg5"
   inkscape:version="1.2.1 (9c6d41e410, 2022-07-14)"
   sodipodi:docname="logo.svg"
   inkscape:export-filename="logo.png"
   inkscape:export-xdpi="96"
   inkscape:export-ydpi="96"
   xmlns:inkscape="http://www.inkscape.org/namespaces/inkscape"
   xmlns:sodipodi="http://sodipodi.sourceforge.net/DTD/sodipodi-0.dtd"
   xmlns="http://www.w3.org/2000/svg"
   xmlns:svg="http://www.w3.org/2000/svg">
  <sodipodi:namedview
     id="namedview7"
     pagecolor="#ffffff"
     bordercolor="#000000"
     borderopacity="0.25"
     inkscape:showpageshadow="2"
     inkscape:pageopacity="0.0"
     inkscape:pagecheckerboard="0"
     inkscape:deskcolor="#d1d1d1"
     inkscape:document-units="mm"
     showgrid="false"
     inkscape:zoom="4.051698"
     inkscape:cx="118.83906"
     inkscape:cy="56.149298"
     inkscape:window-width="1920"
     inkscape:window-height="991"
     inkscape:window-x="-9"
     inkscape:window-y="-9"
     inkscape:window-maximized="1"
     inkscape:current-layer="layer1" />
  <defs
     id="defs2">
    <inkscape:path-effect
       effect="bspline"
       id="path-effect3317"
       is_visible="true"
       lpeversion="1"
       weight="33.333333"
       steps="2"
       helper_size="0"
       apply_no_weight="true"
       apply_with_weight="true"
       only_selected="false" />
    <inkscape:path-effect
       effect="spiro"
       id="path-effect3042"
       is_visible="true"
       lpeversion="1" />
    <inkscape:path-effect
       effect="spiro"
       id="path-effect2948"
       is_visible="true"
       lpeversion="1" />
    <inkscape:path-effect
       effect="spiro"
       id="path-effect3042-6"
       is_visible="true"
       lpeversion="1" />
    <inkscape:path-effect
       effect="bspline"
       id="path-effect3317-9"
       is_visible="true"
       lpeversion="1"
       weight="33.333333"
       steps="2"
       helper_size="0"
       apply_no_weight="true"
       apply_with_weight="true"
       only_selected="false" />
    <inkscape:path-effect
       effect="bspline"
       id="path-effect3317-7"
       is_visible="true"
       lpeversion="1"
       weight="33.333333"
       steps="2"
       helper_size="0"
       apply_no_weight="true"
       apply_with_weight="true"
       only_selected="false" />
  </defs>
  <g
     inkscape:label="Layer 1"
     inkscape:groupmode="layer"
     id="layer1"
     transform="translate(9.1096067,-6.0730705)">
    <circle
       style="fill:#00ff00;stroke-width:0.272084"
       id="path1594"
       cx="10.734143"
       cy="25.916821"
       r="19.84375" />
    <circle
       style="fill:#ececec;stroke-width:0.495805"
       id="path2480"
       cx="10.734143"
       cy="25.916821"
       r="19.579166" />
    <circle
       style="fill:#00ff00;stroke-width:0.274874"
       id="path2482"
       cx="10.734143"
       cy="25.916821"
       r="3.96875" />
    <circle
       style="fill:#ff0000;stroke-width:0.178668"
       id="path2484"
       cx="10.734143"
       cy="25.916821"
       r="1.3229166" />
    <path
       style="fill:#00ff00;stroke-width:0.264583"
       d="M 10.089134,14.170499 -1.7304988,19.002835"
       id="path2946"
       inkscape:path-effect="#path-effect2948"
       inkscape:original-d="M 10.089134,14.170499 C 6.1059864,15.781542 2.2096433,17.392321 -1.7304988,19.002835" />
    <g
       id="g3149"
       transform="translate(3.3956957,-4.5058269)">
      <circle
         style="fill:#00ff00;stroke-width:0.259357"
         id="path2592"
         cx="7.8608623"
         cy="14.231796"
         r="1.984375" />
      <path
         id="path3040"
         style="fill:#00ff00;stroke-width:0.264583"
         d="m 7.0064346,12.41832 c -2.5944656,1.236951 -4.6497488,3.113575 -6.20922375,5.527977 -1.5594751,2.414403 -2.43333675,5.266463 -2.49390465,8.140072 -0.060568,2.87361 0.692349,5.760289 2.14870605,8.238257 C 1.6971476,36.443203 4.563573,38.45307 6.6341854,39.775508 5.7029308,38.843311 2.945191,36.170677 2.2281564,34.716173 1.0239632,32.273468 0.90097395,31.098867 0.96154185,28.225257 1.0221098,25.351645 2.1263299,22.499588 3.6858067,20.085185 4.6837154,18.54021 7.3461501,17.085369 8.8160591,15.980159 Z"
         sodipodi:nodetypes="cssscssscc" />
    </g>
    <g
       id="g3153"
       transform="rotate(-2.5516212,65.644298,64.347955)">
      <circle
         style="fill:#00ff00;stroke-width:0.259357"
         id="path2592-6"
         cx="-14.192052"
         cy="-38.611156"
         r="1.984375"
         transform="rotate(-175.02052)" />
      <path
         id="path3040-2"
         style="fill:#00ff00;stroke-width:0.264583"
         d="m 11.480869,41.578085 c 2.69204,-1.007085 4.902455,-2.69823 6.665613,-4.968158 1.763157,-2.269929 2.881278,-5.035375 3.191044,-7.892882 0.309768,-2.857505 -0.189748,-5.798643 -1.425523,-8.393669 -1.056546,-2.218658 -3.737699,-4.469742 -5.685708,-5.966919 0.846826,1.009511 3.299163,4.514734 3.757858,5.750051 0.958999,2.582693 1.20059,3.391481 0.890823,6.248989 -0.309767,2.857508 -1.657374,5.602955 -3.420533,7.872885 -1.128245,1.452527 -3.906909,2.67078 -5.4672015,3.644233 z"
         sodipodi:nodetypes="cssscssscc" />
    </g>
    <path
       id="path3315"
       style="fill:#00ff00;stroke-width:0.264583"
       d="m -5.0690999,15.269125 c 0.315167,2.570406 0.63027,5.140723 1.264006,7.00319 0.633734,1.862468 1.585813,3.016961 2.609143,3.687113 1.02333103,0.670152 2.11793303,0.855784 3.212723,1.04128 L 1.4137081,26.00232 c -0.91809197,-0.166234 -1.82803397,-0.387364 -2.687691,-0.95033 -1.023331,-0.670151 -1.975408,-1.824645 -2.609143,-3.687113 -0.553234,-1.625885 -0.863468,-3.791074 -1.143083,-6.024955 z" />
    <path
       id="path3315-3"
       style="fill:#00ff00;stroke-width:0.264583"
       d="m 26.541491,36.408093 c -0.280559,-2.574413 -0.561056,-5.148736 -1.16968,-7.01956 -0.60862,-1.870826 -1.545082,-3.038023 -2.559303,-3.72188 -1.014224,-0.683859 -2.106229,-0.8842 -3.198425,-1.084407 l 0.589579,1.006411 c 0.915772,0.178572 1.822657,0.411921 2.674663,0.986401 1.014223,0.683858 1.950683,1.851055 2.559305,3.72188 0.53131,1.633181 0.812388,3.802347 1.061925,6.039788 z" />
    <path
       id="path3315-3-3"
       style="fill:#00ff00;stroke-width:0.264583"
       d="m 19.847098,10.569304 c -2.518078,0.604649 -5.036074,1.209225 -6.81465,2.0501 -1.778581,0.84087 -2.817648,1.91774 -3.3674173,3.01047 -0.5497704,1.092733 -0.6100642,2.201325 -0.6702005,3.31009 L 9.9183818,18.22756 c 0.06104,-0.931021 0.1775432,-1.860171 0.6393832,-2.778129 0.549769,-1.092732 1.588837,-2.1696 3.367415,-3.010472 1.552652,-0.734059 3.668687,-1.28785 5.856443,-1.819009 z" />
    <path
       id="path3315-3-3-5"
       style="fill:#00ff00;stroke-width:0.264583"
       d="m 1.7452323,42.161264 c 2.4156516,-0.933243 4.8312329,-1.866403 6.4825859,-2.935718 1.6513612,-1.069309 2.5384408,-2.274463 2.9384418,-3.43045 0.399999,-1.155989 0.312746,-2.262786 0.225314,-3.369732 l -0.820919,0.828589 c 0.06297,0.930891 0.07071,1.867286 -0.265317,2.838383 -0.3999956,1.155988 -1.2870805,2.361141 -2.9384367,3.430452 -1.4415906,0.93348 -3.4654964,1.762998 -5.5634899,2.579594 z" />
  </g>
</svg>
